<svg width="80" height="80" viewBox="0 0 80 80" fill="none" xmlns="http://www.w3.org/2000/svg">
<circle cx="40" cy="40" r="40" fill="white"/>
<path d="M20.2973 26.3015C20.2973 22.7907 23.1687 19.9505 26.6912 20.0012C30.1033 20.0502 32.8777 22.8485 32.8993 26.2608C32.9114 28.1719 32.0725 29.8869 30.7395 31.0503C30.5988 31.173 30.6191 31.3971 30.7799 31.4922L31.9671 32.1947C32.1591 32.3083 32.0785 32.6025 31.8555 32.6025L26.4791 32.6012C23.0541 32.5375 20.2973 29.7416 20.2973 26.3015Z" fill="#7ACAA6"/>
<path d="M31.9671 32.1942L30.7797 31.4917C30.6199 31.3972 30.5977 31.1734 30.7376 31.0514C32.0858 29.8757 32.9291 28.1356 32.8985 26.1992C32.8456 22.8498 30.1347 20.1003 26.7862 20.0027C26.3114 19.9889 25.8479 20.0277 25.4013 20.1136C28.2956 20.6684 30.5014 23.2196 30.5206 26.2603C30.5299 27.7329 30.0339 29.0891 29.1959 30.1663C28.6899 30.8166 28.8543 31.7598 29.5635 32.1795L29.5884 32.1941C29.7782 32.3065 29.7012 32.5951 29.4838 32.6013L31.8553 32.6019C32.0784 32.602 32.159 32.3077 31.9671 32.1942Z" fill="#57BE92"/>
<path d="M50.9994 42.8715H36.7052C33.135 42.8715 31.1813 38.7109 33.4615 35.9637L33.5883 35.8109C34.5928 34.6006 35.1427 33.0773 35.1427 31.5045V28.748C35.1427 23.9166 39.0593 20 43.8907 20C48.7221 20 52.6387 23.9166 52.6387 28.748V31.5975C52.6387 33.1868 53.2001 34.725 54.2238 35.9407C56.5325 38.6823 54.5836 42.8715 50.9994 42.8715Z" fill="#C59191"/>
<path d="M58.5134 49.9554V59.4054H29.1915V50.0265C29.1915 47.903 30.4642 45.9866 32.4204 45.1632L37.154 43.1054L38.7477 42.4124C39.9571 41.8866 40.7392 40.6937 40.7392 39.3749V38.7632H46.9649V39.3437C46.9649 40.6679 47.7548 41.8655 48.9727 42.3874L55.3751 45.1319C57.2829 45.9772 58.5134 47.8679 58.5134 49.9554Z" fill="white"/>
<path d="M37.1536 45.3586C38.7691 45.8413 41.147 46.3562 44.0455 46.3055C46.7652 46.258 48.9977 45.7291 50.5511 45.233L51.323 43.3949L48.9725 42.3875C47.7548 41.8655 46.9653 40.6683 46.9653 39.3434V38.7634H40.7395V39.375C40.7395 40.6936 39.9573 41.8865 38.7482 42.4123L36.8445 43.24L37.1536 45.3586Z" fill="#FFCEBF"/>
<path d="M55.3749 45.1316L50.5521 43.0645L50.5512 43.0645V59.4052H58.5136V49.9555C58.5136 47.8682 57.2832 45.9772 55.3749 45.1316Z" fill="#8795DE"/>
<path d="M37.154 43.1055V59.4055H29.1915V50.0266C29.1915 47.9031 30.4642 45.9867 32.4204 45.1633L37.154 43.1055Z" fill="#8795DE"/>
<path d="M46.0105 42.1805C46.7268 42.1805 47.4093 42.0367 48.0314 41.7772C47.3641 41.1612 46.9653 40.2846 46.9653 39.3434V38.7634H40.7395V39.3749C40.7395 39.8512 40.6369 40.311 40.4495 40.729C41.3923 41.6276 42.6676 42.1805 44.0729 42.1805H46.0105V42.1805Z" fill="#FFB09E"/>
<path d="M50.0748 29.3978V34.5482C50.0748 37.4497 47.7226 39.8019 44.8211 39.8019H42.8836C39.982 39.8019 37.6299 37.4497 37.6299 34.5482V29.3978C37.6299 27.5102 39.16 25.98 41.0477 25.98H46.6571C48.5447 25.9801 50.0748 27.5102 50.0748 29.3978Z" fill="#FFCEBF"/>
<path d="M50.0747 32.0776C50.0723 32.0847 50.0694 32.0916 50.0673 32.0989C49.8774 32.7547 49.379 33.9937 48.1744 34.9225C47.6136 35.3551 46.9738 35.6676 46.273 35.8515C45.9554 35.9348 45.7654 36.2599 45.8487 36.5776C45.9189 36.8447 46.1598 37.0215 46.4236 37.0215C46.4735 37.0215 46.5243 37.0151 46.5749 37.0019C47.4305 36.7773 48.213 36.3946 48.9008 35.8644C49.3757 35.4981 49.7601 35.0936 50.0712 34.6869C50.0724 34.6408 50.0748 34.5949 50.0748 34.5485V32.0776H50.0747Z" fill="#7A6D79"/>
<path d="M45.621 37.4953H44.2275C43.5932 37.4953 43.079 36.9811 43.079 36.3468C43.079 35.7125 43.5932 35.1982 44.2275 35.1982H45.621C46.2553 35.1982 46.7695 35.7125 46.7695 36.3468C46.7694 36.9811 46.2553 37.4953 45.621 37.4953Z" fill="#685E68"/>
<path d="M45.0938 24.6171C45.2272 22.9342 46.8383 21.8175 48.3803 21.239C50.931 22.7674 52.6386 25.5581 52.6386 28.748V29.3494C52.4976 29.379 52.3573 29.405 52.2186 29.4257C51.3691 29.5525 50.6457 29.4976 50.1515 29.4257C46.9669 29.0014 44.9326 26.6495 45.0938 24.6171Z" fill="#B98080"/>
<path d="M43.8907 20C45.8663 20 47.6888 20.6552 49.1533 21.7598C48.4227 23.0309 46.7452 25.5442 43.5997 27.4048C41.2645 28.7862 39.0627 29.2503 37.7067 29.4255H35.1428V28.7479C35.1427 23.9166 39.0593 20 43.8907 20V20Z" fill="#C59191"/>
<path d="M53.6697 59.4053H34.6342L33.5843 49.501C33.5098 48.7985 34.0605 48.1863 34.7669 48.1863H53.537C54.2434 48.1863 54.7941 48.7985 54.7197 49.501L53.6697 59.4053Z" fill="#EFEDEF"/>
<path d="M53.5367 48.1863H51.1581C51.8645 48.1863 52.4153 48.7985 52.3408 49.501L51.2909 59.4053H53.6695L54.7194 49.501C54.7939 48.7985 54.2432 48.1863 53.5367 48.1863Z" fill="#E5E1E5"/>
<path d="M59.4141 60H20.5859C20.2623 60 20 59.7377 20 59.4141C20 59.0905 20.2623 58.8281 20.5859 58.8281H59.4141C59.7377 58.8281 60 59.0905 60 59.4141C60 59.7377 59.7377 60 59.4141 60Z" fill="#C9BFC8"/>
<path d="M44.1518 55.4609C45.0713 55.4609 45.8168 54.7154 45.8168 53.7959C45.8168 52.8763 45.0713 52.1309 44.1518 52.1309C43.2322 52.1309 42.4868 52.8763 42.4868 53.7959C42.4868 54.7154 43.2322 55.4609 44.1518 55.4609Z" fill="#C9BFC8"/>
<path d="M24.2199 26.8958C24.5483 26.8958 24.8146 26.6295 24.8146 26.3012C24.8146 25.9728 24.5483 25.7065 24.2199 25.7065C23.8916 25.7065 23.6253 25.9728 23.6253 26.3012C23.6253 26.6295 23.8916 26.8958 24.2199 26.8958Z" fill="white"/>
<path d="M26.5987 26.8958C26.9271 26.8958 27.1933 26.6295 27.1933 26.3012C27.1933 25.9728 26.9271 25.7065 26.5987 25.7065C26.2703 25.7065 26.0041 25.9728 26.0041 26.3012C26.0041 26.6295 26.2703 26.8958 26.5987 26.8958Z" fill="white"/>
<path d="M28.9771 26.8958C29.3054 26.8958 29.5717 26.6295 29.5717 26.3012C29.5717 25.9728 29.3054 25.7065 28.9771 25.7065C28.6487 25.7065 28.3824 25.9728 28.3824 26.3012C28.3824 26.6295 28.6487 26.8958 28.9771 26.8958Z" fill="white"/>
</svg>
