<svg width="80" height="80" viewBox="0 0 80 80" fill="none" xmlns="http://www.w3.org/2000/svg">
<circle cx="40" cy="40" r="40" fill="white"/>
<g clip-path="url(#clip0)">
<path d="M21.3064 27.5498H51.4832V35.9457H21.3064V27.5498Z" fill="#FFDA45"/>
<path d="M48.1182 27.5498H51.483V35.9457H48.1182V27.5498Z" fill="#FAC800"/>
<path d="M38.6108 27.5498H48.1576V35.9457H38.6108V27.5498Z" fill="#FFF5F5"/>
<path d="M57.7306 59.4131H27.7861C25.3371 59.4131 23.3518 57.4277 23.3518 54.9787C23.3518 52.5298 25.3371 50.5444 27.7861 50.5444H57.7306V59.4131Z" fill="#F0F5FA"/>
<path d="M54.6006 50.5444H57.7307V59.413H54.6006V50.5444Z" fill="#E4ECF2"/>
<path d="M59.2956 60H27.7861C25.0175 60 22.7649 57.7475 22.7649 54.9787C22.7649 52.21 25.0174 49.9575 27.7861 49.9575H59.2957C59.6198 49.9575 59.8826 50.2203 59.8826 50.5444C59.8826 50.8685 59.6198 51.1313 59.2957 51.1313H27.7861C25.6647 51.1313 23.9387 52.8572 23.9387 54.9787C23.9387 57.1002 25.6646 58.8262 27.7861 58.8262H59.2957C59.6198 58.8262 59.8826 59.0889 59.8826 59.4131C59.8826 59.7372 59.6198 60 59.2956 60Z" fill="#6E9EFF"/>
<path d="M57.7306 54.0876H33.5578C33.2337 54.0876 32.9709 53.8248 32.9709 53.5007C32.9709 53.1766 33.2337 52.9138 33.5578 52.9138H57.7306V54.0876Z" fill="#C5D7E6"/>
<path d="M57.7308 57.0439H39.9763C39.6522 57.0439 39.3894 56.7811 39.3894 56.457C39.3894 56.1329 39.6522 55.8701 39.9763 55.8701H57.7308V57.0439Z" fill="#C5D7E6"/>
<path d="M52.7116 49.3742H23.5742C21.9892 49.3742 20.7043 48.0893 20.7043 46.5043C20.7043 44.9194 21.9892 43.6345 23.5742 43.6345H52.7117V49.3742H52.7116Z" fill="#F0F5FA"/>
<path d="M49.5815 43.6345H52.7116V49.3742H49.5815V43.6345Z" fill="#E4ECF2"/>
<path d="M54.507 49.961H23.5741C21.6682 49.961 20.1174 48.4104 20.1174 46.5043C20.1174 44.5983 21.6681 43.0476 23.5741 43.0476H54.507C54.8311 43.0476 55.0939 43.3104 55.0939 43.6345C55.0939 43.9586 54.8311 44.2214 54.507 44.2214H23.5741C22.3154 44.2214 21.2912 45.2455 21.2912 46.5043C21.2912 47.7632 22.3153 48.7872 23.5741 48.7872H54.507C54.8311 48.7872 55.0939 49.05 55.0939 49.3741C55.0939 49.6983 54.8311 49.961 54.507 49.961Z" fill="#74D84B"/>
<path d="M52.7116 47.2131H44.4704C44.1463 47.2131 43.8835 46.9503 43.8835 46.6262C43.8835 46.3021 44.1463 46.0393 44.4704 46.0393H52.7116V47.2131Z" fill="#C5D7E6"/>
<path d="M30.4114 20.5869H53.7986C55.5593 20.5869 56.9865 22.0142 56.9865 23.7748C56.9865 25.5355 55.5592 26.9627 53.7986 26.9627H30.4114V20.5869Z" fill="#F0F5FA"/>
<path d="M53.7983 20.5869H50.6682C52.4289 20.5869 53.8561 22.0142 53.8561 23.7748C53.8561 25.5355 52.4288 26.9627 50.6682 26.9627H53.7983C55.559 26.9627 56.9862 25.5354 56.9862 23.7748C56.9862 22.0142 55.559 20.5869 53.7983 20.5869Z" fill="#E4ECF2"/>
<path d="M53.7984 27.5497H28.4167C28.0926 27.5497 27.8298 27.2869 27.8298 26.9628C27.8298 26.6387 28.0926 26.3759 28.4167 26.3759H53.7984C55.2326 26.3759 56.3994 25.2091 56.3994 23.7749C56.3994 22.3407 55.2326 21.1738 53.7984 21.1738H28.4167C28.0926 21.1738 27.8298 20.911 27.8298 20.5869C27.8298 20.2628 28.0926 20 28.4167 20H53.7984C55.8798 20 57.5732 21.6934 57.5732 23.7748C57.5732 25.8562 55.8798 27.5497 53.7984 27.5497Z" fill="#FC435F"/>
<path d="M24.7029 35.9456H59.5957V43.0476H24.7029V35.9456Z" fill="#6E9EFF"/>
<path d="M48.9402 35.9456H59.5956V43.0476H48.9402V35.9456Z" fill="#BF6930"/>
<path d="M56.4658 35.9456H59.5959V43.0476H56.4658V35.9456Z" fill="#AD5F2C"/>
<path d="M36.707 40.6703H28.7246C28.0763 40.6703 27.5508 40.1448 27.5508 39.4965C27.5508 38.8483 28.0763 38.3228 28.7246 38.3228H36.707C37.3552 38.3228 37.8808 38.8483 37.8808 39.4965C37.8808 40.1448 37.3552 40.6703 36.707 40.6703Z" fill="#FFF5F5"/>
<path d="M56.2048 40.0835H52.3835C52.0594 40.0835 51.7966 39.8207 51.7966 39.4966C51.7966 39.1724 52.0594 38.9097 52.3835 38.9097H56.2048C56.5289 38.9097 56.7917 39.1724 56.7917 39.4966C56.7917 39.8207 56.529 40.0835 56.2048 40.0835Z" fill="#FFF5F5"/>
<path d="M45.5232 33.0648C45.1991 33.0648 44.9363 32.802 44.9363 32.4779V31.0176C44.9363 30.6934 45.1991 30.4307 45.5232 30.4307C45.8473 30.4307 46.1101 30.6934 46.1101 31.0176V32.4779C46.1101 32.802 45.8474 33.0648 45.5232 33.0648Z" fill="#677A8F"/>
<path d="M43.3843 33.0648C43.0601 33.0648 42.7974 32.802 42.7974 32.4779V31.0176C42.7974 30.6934 43.0601 30.4307 43.3843 30.4307C43.7084 30.4307 43.9711 30.6934 43.9711 31.0176V32.4779C43.9711 32.802 43.7085 33.0648 43.3843 33.0648Z" fill="#677A8F"/>
<path d="M41.2453 33.0648C40.9212 33.0648 40.6584 32.802 40.6584 32.4779V31.0176C40.6584 30.6934 40.9212 30.4307 41.2453 30.4307C41.5695 30.4307 41.8322 30.6934 41.8322 31.0176V32.4779C41.8322 32.802 41.5695 33.0648 41.2453 33.0648Z" fill="#677A8F"/>
<path d="M30.3945 23.188H43.7864C44.1106 23.188 44.3733 23.4508 44.3733 23.7749C44.3733 24.099 44.1106 24.3618 43.7864 24.3618H30.3945V23.188Z" fill="#C5D7E6"/>
</g>
<defs>
<clipPath id="clip0">
<rect width="40" height="40" fill="white" transform="translate(20 20)"/>
</clipPath>
</defs>
</svg>
