<svg width="80" height="80" viewBox="0 0 80 80" fill="none" xmlns="http://www.w3.org/2000/svg">
<circle cx="40" cy="40" r="40" fill="white"/>
<path d="M55.3548 52.5661H30.0603V50.5361L27.2789 48.5233L23.4022 24.2864H51.5712L54.4863 26.6536H56.6394V51.2815C56.6394 51.9909 56.0643 52.5661 55.3548 52.5661Z" fill="#F4FBFF"/>
<path d="M54.7987 26.6536V51.2814C54.7987 51.9908 54.2236 52.566 53.5141 52.566H55.355C56.0644 52.566 56.6396 51.9908 56.6396 51.2814V26.6536H54.7987Z" fill="#E4F6FF"/>
<path d="M56.6393 26.6536H20.5858V23.2038C20.5858 22.4943 21.161 21.9192 21.8704 21.9192H55.3546C56.0641 21.9192 56.6393 22.4943 56.6393 23.2038V26.6536H56.6393Z" fill="#3B66C1"/>
<path d="M55.355 21.9192H53.5141C54.2236 21.9192 54.7987 22.4943 54.7987 23.2038V26.6536H56.6396V23.2039C56.6396 22.4943 56.0644 21.9192 55.355 21.9192Z" fill="#30579D"/>
<path d="M58.2815 47.7353L59.0031 48.169C59.258 48.3222 59.414 48.5979 59.414 48.8953V50.5342C59.414 50.8317 59.258 51.1074 59.0031 51.2606L58.2815 51.6943C58.1584 51.7684 58.0561 51.8724 57.9842 51.9969L56.3858 54.7653C56.314 54.8898 56.275 55.0304 56.2724 55.1741L56.2576 56.0159C56.2523 56.3133 56.0915 56.5861 55.834 56.7349L54.4146 57.5543C54.157 57.7031 53.8403 57.7058 53.5801 57.5617L52.8437 57.1536C52.718 57.084 52.5767 57.0474 52.433 57.0474H49.2363C49.0926 57.0474 48.9513 57.084 48.8256 57.1536L48.0892 57.5617C47.829 57.7058 47.5123 57.703 47.2547 57.5543L45.8354 56.7349C45.5778 56.5861 45.417 56.3133 45.4118 56.0159L45.3969 55.1741C45.3944 55.0304 45.3554 54.8897 45.2835 54.7653L43.6851 51.9969C43.6133 51.8724 43.511 51.7683 43.3878 51.6943L42.6662 51.2606C42.4113 51.1074 42.2554 50.8317 42.2554 50.5342V48.8953C42.2554 48.5979 42.4113 48.3222 42.6662 48.169L43.3878 47.7353C43.5109 47.6612 43.6133 47.5571 43.6851 47.4327L45.2835 44.6642C45.3554 44.5398 45.3944 44.3992 45.3969 44.2555L45.4118 43.4137C45.417 43.1163 45.5778 42.8435 45.8354 42.6947L47.2547 41.8753C47.5123 41.7265 47.829 41.7238 48.0892 41.8679L48.8256 42.276C48.9513 42.3456 49.0926 42.3821 49.2363 42.3821H52.433C52.5767 42.3821 52.718 42.3456 52.8437 42.276L53.5801 41.8679C53.8403 41.7238 54.157 41.7266 54.4146 41.8753L55.834 42.6947C56.0915 42.8435 56.2523 43.1163 56.2576 43.4137L56.2724 44.2555C56.2749 44.3992 56.314 44.5399 56.3858 44.6642L57.9842 47.4327C58.0561 47.5571 58.1584 47.6613 58.2815 47.7353Z" fill="#90D8F9"/>
<path d="M59.0034 48.169L58.2818 47.7353C58.1587 47.6612 58.0563 47.5571 57.9845 47.4327L56.3861 44.6642C56.3142 44.5398 56.2752 44.3992 56.2727 44.2555L56.2578 43.4137C56.2526 43.1163 56.0918 42.8435 55.8342 42.6947L54.4149 41.8753C54.1573 41.7265 53.8406 41.7238 53.5804 41.8679L53.1032 42.1323L54.0774 42.6947C54.3349 42.8435 54.4957 43.1163 54.5009 43.4137L54.5158 44.2555C54.5183 44.3992 54.5574 44.5399 54.6292 44.6642L56.2276 47.4327C56.2995 47.5571 56.4017 47.6613 56.5249 47.7353L57.2465 48.169C57.5014 48.3222 57.6573 48.5979 57.6573 48.8953V50.5342C57.6573 50.8317 57.5014 51.1074 57.2465 51.2606L56.5249 51.6943C56.4018 51.7684 56.2995 51.8725 56.2276 51.9969L54.6292 54.7653C54.5574 54.8898 54.5184 55.0304 54.5158 55.1741L54.5009 56.0159C54.4957 56.3133 54.3349 56.5861 54.0774 56.7349L53.1032 57.2973L53.5804 57.5617C53.8406 57.7058 54.1573 57.703 54.4149 57.5543L55.8342 56.7349C56.0918 56.5861 56.2526 56.3133 56.2578 56.0159L56.2727 55.1741C56.2752 55.0304 56.3142 54.8897 56.3861 54.7653L57.9845 51.9969C58.0563 51.8724 58.1586 51.7683 58.2818 51.6943L59.0034 51.2606C59.2583 51.1074 59.4142 50.8317 59.4142 50.5342V48.8953C59.4142 48.5979 59.2583 48.3223 59.0034 48.169Z" fill="#75CEF9"/>
<path d="M50.8347 54.5573C53.5091 54.5573 55.6772 52.3893 55.6772 49.7148C55.6772 47.0404 53.5091 44.8723 50.8347 44.8723C48.1602 44.8723 45.9922 47.0404 45.9922 49.7148C45.9922 52.3893 48.1602 54.5573 50.8347 54.5573Z" fill="#F4FBFF"/>
<path d="M50.8346 44.8723C50.5344 44.8723 50.2412 44.901 49.9561 44.9533C52.211 45.3667 53.9202 47.3405 53.9202 49.7148C53.9202 52.0891 52.211 54.0629 49.9561 54.4764C50.2411 54.5286 50.5344 54.5573 50.8346 54.5573C53.509 54.5573 55.6771 52.3893 55.6771 49.7148C55.6771 47.0404 53.509 44.8723 50.8346 44.8723Z" fill="#E4F6FF"/>
<path d="M30.0603 52.566H21.8705C21.1611 52.566 20.5859 51.9908 20.5859 51.2814V26.6536H30.0603V52.566Z" fill="#CBE2FF"/>
<path d="M22.646 23.7004C22.3223 23.7004 22.0601 23.9627 22.0601 24.2864C22.0601 24.61 22.3223 24.8723 22.646 24.8723H23.4022C23.7259 24.8723 23.9882 24.61 23.9882 24.2864C23.9882 23.9627 23.7259 23.7004 23.4022 23.7004H22.646Z" fill="black"/>
<path d="M25.887 23.7004C25.5634 23.7004 25.3011 23.9627 25.3011 24.2864C25.3011 24.61 25.5634 24.8723 25.887 24.8723H26.6433C26.9669 24.8723 27.2292 24.61 27.2292 24.2864C27.2292 23.9627 26.9669 23.7004 26.6433 23.7004H25.887Z" fill="black"/>
<path d="M29.1276 23.7004C28.8039 23.7004 28.5416 23.9627 28.5416 24.2864C28.5416 24.61 28.8039 24.8723 29.1276 24.8723H29.8837C30.2074 24.8723 30.4697 24.61 30.4697 24.2864C30.4697 23.9627 30.2074 23.7004 29.8837 23.7004H29.1276Z" fill="black"/>
<path d="M46.5035 38.6846C46.8219 38.7419 47.1268 38.5305 47.1842 38.212L47.992 33.7366L49.316 38.2246C49.3181 38.2317 49.3203 38.2387 49.3227 38.2457C49.4231 38.5445 49.7017 38.7445 50.0166 38.7445H50.0206C50.3371 38.7428 50.6154 38.5393 50.7131 38.2383C50.7152 38.2316 50.7174 38.2248 50.7192 38.218L51.9977 33.733L52.8549 38.218C52.9156 38.5359 53.223 38.7446 53.5404 38.6835C53.8582 38.6228 54.0667 38.3159 54.0059 37.998L52.7997 31.6863C52.7334 31.3607 52.4554 31.1202 52.1236 31.1015C51.7902 31.0809 51.4885 31.2904 51.3859 31.6064C51.3838 31.6131 51.3817 31.6198 51.3797 31.6267L50.0095 36.4335L48.5895 31.6205C48.5874 31.6134 48.5852 31.6064 48.5828 31.5995C48.477 31.2845 48.1713 31.08 47.8398 31.1023C47.5083 31.1245 47.2327 31.368 47.1686 31.7011L46.0309 38.0041C45.9735 38.3223 46.1851 38.6271 46.5035 38.6846Z" fill="#47A896"/>
<path d="M38.9214 36.7962C38.6735 36.5882 38.3039 36.6204 38.096 36.8682C38.0325 36.9439 37.9639 37.0146 37.8924 37.0784C37.5242 37.4063 37.0577 37.5725 36.506 37.5725C35.0446 37.5725 33.8557 36.3836 33.8557 34.9223C33.8557 33.4609 35.0446 32.272 36.506 32.272C37.0371 32.272 37.5493 32.4284 37.9874 32.7242C38.2556 32.9053 38.6198 32.8349 38.8009 32.5667C38.982 32.2985 38.9115 31.9342 38.6433 31.7531C38.0108 31.3259 37.2717 31.1001 36.506 31.1001C34.3984 31.1001 32.6838 32.8147 32.6838 34.9223C32.6838 37.0299 34.3984 38.7444 36.506 38.7444C37.3418 38.7444 38.0907 38.4709 38.6719 37.9534C38.7856 37.8521 38.8939 37.7404 38.9935 37.6217C39.2015 37.3738 39.1692 37.0042 38.9214 36.7962Z" fill="#47A896"/>
<path d="M43.7878 38.5457C44.0019 38.789 44.3722 38.812 44.6148 38.5985C44.8577 38.3847 44.8813 38.0144 44.6675 37.7715L42.7696 35.6151C43.9222 35.465 44.8136 34.515 44.8136 33.3684C44.8136 32.1178 43.7535 31.1003 42.4504 31.1003H40.7304C40.73 31.1003 40.7297 31.1004 40.7293 31.1004C40.7289 31.1004 40.7286 31.1003 40.7282 31.1003C40.4045 31.1003 40.1423 31.3626 40.1423 31.6863V38.1587C40.1423 38.4824 40.4045 38.7446 40.7282 38.7446C41.0519 38.7446 41.3141 38.4824 41.3141 38.1587V35.7353L43.7878 38.5457ZM42.4504 32.2721C43.0962 32.2721 43.6417 32.7742 43.6417 33.3683C43.6417 33.9625 43.0962 34.4644 42.4504 34.4644C42.1913 34.4644 41.7109 34.4666 41.3249 34.4686C41.3229 34.0882 41.3206 33.6179 41.3206 33.3683C41.3206 33.1566 41.3193 32.6686 41.3182 32.2721H42.4504Z" fill="#47A896"/>
<path d="M59.305 47.667L58.5836 47.2333C58.5457 47.2105 58.5139 47.1782 58.4917 47.1398L57.2253 44.9464V23.2038C57.2253 22.1724 56.3862 21.3333 55.3548 21.3333H46.2931C45.9695 21.3333 45.7072 21.5955 45.7072 21.9192C45.7072 22.2429 45.9695 22.5051 46.2931 22.5051H55.3548C55.7401 22.5051 56.0534 22.8186 56.0534 23.2038V26.0677H21.1719V23.2038C21.1719 22.8185 21.4853 22.5051 21.8705 22.5051H43.9503C44.274 22.5051 44.5363 22.2429 44.5363 21.9192C44.5363 21.5955 44.274 21.3333 43.9503 21.3333H21.8705C20.8391 21.3332 20 22.1724 20 23.2038V46.4693C20 46.7929 20.2623 47.0552 20.5859 47.0552C20.9096 47.0552 21.1719 46.7929 21.1719 46.4693V27.2396H29.4743V51.9801H21.8705C21.4852 51.9801 21.1719 51.6667 21.1719 51.2815V48.8121C21.1719 48.4884 20.9096 48.2261 20.5859 48.2261C20.2623 48.2261 20 48.4884 20 48.8121V51.2815C20 52.3129 20.8391 53.152 21.8705 53.152H43.6754L44.7762 55.0586C44.7982 55.0968 44.8103 55.1404 44.811 55.1847L44.8259 56.0264C44.8347 56.5264 45.1093 56.9924 45.5423 57.2424L46.9617 58.0618C47.3948 58.3119 47.9355 58.3167 48.373 58.0743L49.1096 57.6662C49.1483 57.6448 49.1921 57.6335 49.2362 57.6335H52.433C52.4772 57.6335 52.5211 57.6449 52.5598 57.6663L53.2962 58.0743C53.5111 58.1933 53.7509 58.2528 53.9906 58.2528C54.239 58.2528 54.4872 58.189 54.7076 58.0618L56.127 57.2424C56.5602 56.9923 56.8347 56.5263 56.8434 56.0264L56.8583 55.1846C56.8591 55.1404 56.8712 55.0968 56.8933 55.0585L58.4917 52.2899C58.5138 52.2517 58.5455 52.2194 58.5834 52.1966L59.3048 51.7629C59.7334 51.5054 59.9998 51.0347 59.9998 50.5343V48.8954C59.9999 48.3954 59.7337 47.9246 59.305 47.667ZM30.6462 27.2396H56.0534V42.145L54.7076 41.3679C54.2743 41.1178 53.7334 41.1131 53.2962 41.3555L52.5601 41.7634C52.5213 41.7849 52.4773 41.7963 52.433 41.7963H49.2363C49.1921 41.7963 49.1482 41.7849 49.1096 41.7636L48.3733 41.3556C47.9359 41.1131 47.395 41.1179 46.9619 41.3679L45.5425 42.1874C45.1095 42.4374 44.8348 42.9034 44.826 43.4034L44.8112 44.2452C44.8104 44.2894 44.7984 44.333 44.7763 44.3713L43.178 47.1397C43.1558 47.178 43.124 47.2104 43.0861 47.2332L42.3645 47.6669C41.9359 47.9247 41.6696 48.3954 41.6696 48.8954V50.5344C41.6696 51.0346 41.9359 51.5054 42.3645 51.7629L42.7259 51.9801H30.6462V27.2396ZM58.828 50.5344C58.828 50.6257 58.7795 50.7116 58.7013 50.7586L57.9795 51.1924C57.7718 51.3174 57.5979 51.4944 57.4769 51.7042L55.8786 54.4725C55.7573 54.6826 55.6909 54.9217 55.6866 55.164L55.6718 56.0059C55.6702 56.0971 55.6202 56.1821 55.5411 56.2277L54.1217 57.0472C54.0427 57.0927 53.9441 57.0938 53.8642 57.0494L53.1278 56.6414C52.9157 56.5239 52.6755 56.4618 52.433 56.4618H49.2363C48.9938 56.4618 48.7536 56.5239 48.5416 56.6414L47.8052 57.0494C47.7254 57.0937 47.6266 57.0927 47.5477 57.0472L46.1283 56.2277C46.0492 56.1821 45.9992 56.097 45.9976 56.0058L45.9827 55.1641C45.9784 54.9216 45.9122 54.6826 45.7909 54.4726L44.1925 51.7041C44.0713 51.4943 43.8976 51.3174 43.6897 51.1923L42.968 50.7585C42.8899 50.7115 42.8413 50.6257 42.8413 50.5344V48.8954C42.8413 48.8042 42.8899 48.7183 42.9681 48.6713L43.6898 48.2375C43.8975 48.1125 44.0713 47.9356 44.1926 47.7257L45.7909 44.9573C45.9122 44.7473 45.9784 44.5083 45.9827 44.2658L45.9976 43.4241C45.9992 43.3329 46.0492 43.2478 46.1283 43.2022L47.5477 42.3827C47.6266 42.3372 47.7252 42.3361 47.8052 42.3805L48.5418 42.7886C48.7538 42.9061 48.994 42.9681 49.2363 42.9681H52.433C52.6753 42.9681 52.9155 42.9061 53.1278 42.7886L53.8643 42.3804C53.9441 42.3363 54.0427 42.3372 54.1217 42.3827L55.5411 43.2022C55.6202 43.2478 55.6702 43.3328 55.6718 43.4241L55.6866 44.2658C55.6909 44.5082 55.7573 44.7472 55.8785 44.9572L57.4768 47.7255C57.5979 47.9354 57.7717 48.1125 57.9797 48.2375L58.7013 48.6713C58.7795 48.7184 58.828 48.8042 58.828 48.8954V50.5344Z" fill="#FFC107"/>
<path d="M50.8347 44.2864C47.8415 44.2864 45.4064 46.7216 45.4064 49.7148C45.4064 52.708 47.8415 55.1433 50.8347 55.1433C52.1539 55.1433 53.4261 54.6632 54.4172 53.7916C54.6602 53.5779 54.684 53.2076 54.4703 52.9647C54.2565 52.7217 53.8863 52.6979 53.6433 52.9116C52.8663 53.595 51.8688 53.9713 50.8347 53.9713C48.4877 53.9713 46.5782 52.0618 46.5782 49.7147C46.5782 47.3676 48.4877 45.4582 50.8347 45.4582C53.1818 45.4582 55.0913 47.3676 55.0913 49.7147C55.0913 50.2313 54.999 50.7374 54.8171 51.2188C54.7026 51.5215 54.8553 51.8597 55.158 51.974C55.4606 52.0884 55.799 51.9359 55.9132 51.6331C56.1454 51.0188 56.2632 50.3733 56.2632 49.7147C56.2632 46.7216 53.8279 44.2864 50.8347 44.2864Z" fill="#407F64"/>
<path d="M23.904 30.8376H26.7426C27.0663 30.8376 27.3285 30.5754 27.3285 30.2517C27.3285 29.928 27.0663 29.6658 26.7426 29.6658H23.904C23.5803 29.6658 23.3181 29.928 23.3181 30.2517C23.3181 30.5754 23.5803 30.8376 23.904 30.8376Z" fill="#D90505"/>
<path d="M23.904 34.4358H26.7426C27.0663 34.4358 27.3285 34.1735 27.3285 33.8499C27.3285 33.5262 27.0663 33.2639 26.7426 33.2639H23.904C23.5803 33.2639 23.3181 33.5262 23.3181 33.8499C23.3181 34.1735 23.5803 34.4358 23.904 34.4358Z" fill="#D90505"/>
<path d="M23.904 38.0339H26.7426C27.0663 38.0339 27.3285 37.7717 27.3285 37.448C27.3285 37.1243 27.0663 36.8621 26.7426 36.8621H23.904C23.5803 36.8621 23.3181 37.1243 23.3181 37.448C23.3181 37.7717 23.5803 38.0339 23.904 38.0339Z" fill="#D90505"/>
<path d="M23.904 41.6321H26.7426C27.0663 41.6321 27.3285 41.3698 27.3285 41.0461C27.3285 40.7225 27.0663 40.4602 26.7426 40.4602H23.904C23.5803 40.4602 23.3181 40.7225 23.3181 41.0461C23.3181 41.3698 23.5803 41.6321 23.904 41.6321Z" fill="#D90505"/>
<path d="M23.904 45.2302H26.7426C27.0663 45.2302 27.3285 44.968 27.3285 44.6443C27.3285 44.3206 27.0663 44.0583 26.7426 44.0583H23.904C23.5803 44.0583 23.3181 44.3206 23.3181 44.6443C23.3181 44.968 23.5803 45.2302 23.904 45.2302Z" fill="#D90505"/>
</svg>
