<svg width="31" height="31" viewBox="0 0 31 31" fill="none" xmlns="http://www.w3.org/2000/svg">
<g clip-path="url(#clip0)">
<path d="M22.689 0.118164H8.97704C4.51434 0.118164 0.883789 3.77179 0.883789 8.26283V22.0622C0.883789 26.553 4.51434 30.2066 8.97704 30.2066H22.6892C27.1517 30.2066 30.7823 26.553 30.7823 22.0622V8.26283C30.7823 3.77179 27.1517 0.118164 22.689 0.118164V0.118164ZM15.833 23.3895C11.3252 23.3895 7.65789 19.6989 7.65789 15.1624C7.65789 10.6259 11.3252 6.93531 15.833 6.93531C20.3409 6.93531 24.0082 10.6259 24.0082 15.1624C24.0082 19.6989 20.3409 23.3895 15.833 23.3895ZM24.2037 8.87552C22.8715 8.87552 21.788 7.78512 21.788 6.44451C21.788 5.1039 22.8715 4.01328 24.2037 4.01328C25.5358 4.01328 26.6195 5.1039 26.6195 6.44451C26.6195 7.78512 25.5358 8.87552 24.2037 8.87552Z" fill="white"/>
<path d="M15.833 8.69922C12.2919 8.69922 9.41064 11.5985 9.41064 15.1624C9.41064 18.726 12.2919 21.6255 15.833 21.6255C19.3744 21.6255 22.2554 18.726 22.2554 15.1624C22.2554 11.5985 19.3744 8.69922 15.833 8.69922Z" fill="white"/>
<path d="M24.2037 5.77734C23.8382 5.77734 23.5408 6.07669 23.5408 6.44443C23.5408 6.81218 23.8382 7.11153 24.2037 7.11153C24.5693 7.11153 24.8668 6.81241 24.8668 6.44443C24.8668 6.07646 24.5693 5.77734 24.2037 5.77734Z" fill="white"/>
</g>
<defs>
<clipPath id="clip0">
<rect width="29.8985" height="30.0885" fill="white" transform="translate(0.883789 0.118164)"/>
</clipPath>
</defs>
</svg>
