<svg width="30" height="31" viewBox="0 0 30 31" fill="none" xmlns="http://www.w3.org/2000/svg">
<g clip-path="url(#clip0)">
<path d="M25.6204 0.118164H4.48123C2.06648 0.118164 0.101562 2.09557 0.101562 4.52566V25.7992C0.101562 28.2293 2.06648 30.2067 4.48123 30.2067H25.6204C28.0352 30.2067 30.0001 28.2293 30.0001 25.7992V4.52566C30.0001 2.09557 28.0352 0.118164 25.6204 0.118164ZM10.6712 23.9774H7.16743V11.6364H10.6712V23.9774ZM10.6712 9.87342H7.16743V6.34742H10.6712V9.87342ZM22.9342 23.9774H19.4305V16.9254C19.4305 15.9535 18.6444 15.1624 17.6786 15.1624C16.7128 15.1624 15.9268 15.9535 15.9268 16.9254V23.9774H12.423V11.6364H15.9268V12.301C16.8447 12.0138 17.4409 11.6364 18.5546 11.6364C20.9308 11.6389 22.9342 13.7842 22.9342 16.3194V23.9774Z" fill="white"/>
</g>
<defs>
<clipPath id="clip0">
<rect width="29.8985" height="30.0885" fill="white" transform="translate(0.101562 0.118164)"/>
</clipPath>
</defs>
</svg>
