<svg width="80" height="80" viewBox="0 0 80 80" fill="none" xmlns="http://www.w3.org/2000/svg">
<circle cx="40" cy="40" r="40" fill="white"/>
<g clip-path="url(#clip0)">
<path d="M44.3246 22.552C44.3246 21.1426 43.182 20 41.7726 20H37.2261C35.8166 20 34.6741 21.1426 34.6741 22.552V56.4799H44.3245V22.552H44.3246Z" fill="#FBE88C"/>
<path d="M44.3246 51.4976V46.4091L44.2111 46.4818C44.0623 46.5771 43.8893 46.6277 43.7126 46.6277H39.2795C38.6087 46.6277 38.0649 46.0839 38.0649 45.4131V21.4973C38.0649 20.9378 38.2455 20.4206 38.5508 20H37.2261C35.8166 20 34.6741 21.1426 34.6741 22.552V56.4799H44.3245V55.4252H38.0649V51.4976H44.3246V51.4976Z" fill="#FBE372"/>
<path d="M41.9239 22.8112V25.6866H37.0751V22.8112C37.0751 22.5847 37.2583 22.4006 37.4856 22.4006H41.5134C41.7399 22.4006 41.9239 22.5847 41.9239 22.8112Z" fill="#F2EAE7"/>
<path d="M38.0657 22.4006H37.4867C37.2594 22.4006 37.0761 22.5847 37.0761 22.8112V25.6866H38.0657V22.4006Z" fill="#EDE2DD"/>
<path d="M41.9239 25.6865V39.5049C41.9239 39.7314 41.7399 39.9154 41.5134 39.9154H37.4856C37.2583 39.9154 37.0751 39.7314 37.0751 39.5049V25.6865H41.9239Z" fill="#F9F7F7"/>
<path d="M37.4856 39.9154H38.0647V25.6865H37.0751V39.5049C37.0751 39.7314 37.2583 39.9154 37.4856 39.9154Z" fill="#F8F3F2"/>
<path d="M39.4993 49.3335C41.1603 49.3335 42.5069 47.987 42.5069 46.326C42.5069 44.6649 41.1603 43.3184 39.4993 43.3184C37.8382 43.3184 36.4917 44.6649 36.4917 46.326C36.4917 47.987 37.8382 49.3335 39.4993 49.3335Z" fill="#F9F7F7"/>
<path d="M39.442 49.333C41.027 49.3624 42.3385 48.1655 42.4917 46.6276H39.8256C38.8531 46.6276 38.0648 45.8393 38.0648 44.8669V43.6819C37.0864 44.2138 36.4362 45.2729 36.4955 46.478C36.5726 48.0453 37.8731 49.3038 39.442 49.333Z" fill="#F2EAE7"/>
<path d="M53.9424 22.552C53.9424 21.1426 52.7999 20 51.3904 20H46.8439C45.4345 20 44.2919 21.1426 44.2919 22.552V56.4799H53.9424V22.552H53.9424Z" fill="#9DE5D1"/>
<path d="M51.5415 22.8112V25.6866H46.6927V22.8112C46.6927 22.5847 46.8759 22.4006 47.1032 22.4006H51.131C51.3575 22.4006 51.5415 22.5847 51.5415 22.8112Z" fill="#F2EAE7"/>
<path d="M47.6823 22.4006H47.1032C46.8759 22.4006 46.6927 22.5847 46.6927 22.8112V25.6866H47.6823V22.4006Z" fill="#EDE2DD"/>
<path d="M51.5415 25.6865V39.5049C51.5415 39.7314 51.3575 39.9154 51.131 39.9154H47.1032C46.8759 39.9154 46.6927 39.7314 46.6927 39.5049V25.6865H51.5415Z" fill="#F9F7F7"/>
<path d="M47.1032 39.9154H47.6823V25.6865H46.6927V39.5049C46.6927 39.7314 46.8759 39.9154 47.1032 39.9154Z" fill="#F8F3F2"/>
<path d="M53.9423 50.4348V44.3897H48.1462C48.1446 44.3897 48.1431 44.3897 48.1415 44.3897C47.8897 44.3902 47.6826 44.193 47.6826 43.9412V21.4973C47.6826 20.9378 47.8632 20.4206 48.1686 20H46.8439C45.4344 20 44.2919 21.1426 44.2919 22.552V56.4799H53.9423V55.4252H47.6826V50.4348H53.9423Z" fill="#82DEC5"/>
<path d="M49.1168 49.8138C50.7779 49.8138 52.1244 48.4672 52.1244 46.8062C52.1244 45.1451 50.7779 43.7986 49.1168 43.7986C47.4558 43.7986 46.1093 45.1451 46.1093 46.8062C46.1093 48.4672 47.4558 49.8138 49.1168 49.8138Z" fill="#F9F7F7"/>
<path d="M48.1412 44.3896C47.9606 44.39 47.8035 44.2884 47.7288 44.1382C46.7666 44.6398 46.1093 45.6459 46.1093 46.8061C46.1093 48.4672 47.4558 49.8137 49.1168 49.8137C50.7779 49.8137 52.1244 48.4672 52.1244 46.8061C52.1244 45.816 51.6458 44.9377 50.9074 44.3897H48.146C48.1443 44.3896 48.1428 44.3896 48.1412 44.3896Z" fill="#F2EAE7"/>
<path d="M34.8014 22.7922C34.8014 21.3828 33.6589 20.2402 32.2495 20.2402H27.703C26.2936 20.2402 25.151 21.3828 25.151 22.7922V56.7201H34.8014V22.7922Z" fill="#EE878A"/>
<path d="M34.8014 50.555V46.2764L32.4191 44.7505C32.0514 44.515 31.624 44.3898 31.1872 44.3898H30.4027C29.3749 44.3898 28.5418 43.5567 28.5418 42.5289V21.7375C28.5418 21.178 28.7223 20.6609 29.0278 20.2402H27.703C26.2936 20.2402 25.151 21.3828 25.151 22.7922V56.7201H34.8014V55.6655H28.5418V50.555H34.8014Z" fill="#EC6E73"/>
<path d="M32.4009 23.0514V25.9268H27.552V23.0514C27.552 22.8249 27.7353 22.6409 27.9625 22.6409H31.9903C32.2168 22.6409 32.4009 22.8249 32.4009 23.0514Z" fill="#F2EAE7"/>
<path d="M28.5416 22.6409H27.9625C27.7353 22.6409 27.552 22.8249 27.552 23.0514V25.9268H28.5416V22.6409Z" fill="#EDE2DD"/>
<path d="M32.4009 25.9268V39.7451C32.4009 39.9716 32.2168 40.1557 31.9903 40.1557H27.9625C27.7353 40.1557 27.552 39.9716 27.552 39.7451V25.9268H32.4009Z" fill="#F9F7F7"/>
<path d="M27.9625 40.1557H28.5416V25.9268H27.552V39.7451C27.552 39.9716 27.7353 40.1557 27.9625 40.1557Z" fill="#F8F3F2"/>
<path d="M29.9763 49.5738C31.6373 49.5738 32.9839 48.2272 32.9839 46.5662C32.9839 44.9051 31.6373 43.5586 29.9763 43.5586C28.3152 43.5586 26.9687 44.9051 26.9687 46.5662C26.9687 48.2272 28.3152 49.5738 29.9763 49.5738Z" fill="#F9F7F7"/>
<path d="M31.1873 44.3899H30.4028C29.8321 44.3899 29.3217 44.1327 28.9803 43.7283C27.8089 44.1394 26.9687 45.2544 26.9687 46.5662C26.9687 48.2273 28.3152 49.5738 29.9763 49.5738C31.6373 49.5738 32.9839 48.2273 32.9839 46.5662C32.9839 45.861 32.7405 45.213 32.3341 44.7002C31.986 44.4981 31.5909 44.3899 31.1873 44.3899Z" fill="#F2EAE7"/>
<path d="M44.6203 48.1202L47.7773 46.0982C47.8874 46.0277 48.0154 45.9902 48.1461 45.9902H56.4414C56.9338 45.9902 57.333 46.3895 57.333 46.8819V58.0341C57.333 59.1198 56.4529 59.9999 55.3672 59.9999H23.9659C22.8802 59.9999 22.0001 59.1198 22.0001 58.0341V46.882C22.0001 46.3895 22.3993 45.9903 22.8917 45.9903H31.187C31.3177 45.9903 31.4456 46.0278 31.5557 46.0983L34.7128 48.1203C34.8228 48.1908 34.9508 48.2283 35.0815 48.2283H44.2516C44.3822 48.2283 44.5103 48.1908 44.6203 48.1202Z" fill="#B3ADB5"/>
<path d="M28.7599 58.0723C26.5957 58.0723 24.8413 56.3179 24.8413 54.1537V45.9902H22.8928C22.4003 45.9902 22.0011 46.3895 22.0011 46.8819V58.0341C22.0011 59.1198 22.8812 59.9999 23.9669 59.9999H55.3682C56.4411 59.9999 57.3127 59.1403 57.333 58.0722H28.7599V58.0723Z" fill="#A59CA6"/>
<path d="M53.3956 56.1856H25.9375C25.7494 56.1856 25.597 56.0331 25.597 55.8451V51.8383C25.597 51.6503 25.7494 51.4978 25.9375 51.4978H53.3955C53.5836 51.4978 53.736 51.6503 53.736 51.8383V55.845C53.7361 56.0331 53.5837 56.1856 53.3956 56.1856Z" fill="#F9F7F7"/>
</g>
<defs>
<clipPath id="clip0">
<rect width="40" height="40" fill="white" transform="translate(22 20)"/>
</clipPath>
</defs>
</svg>
