<svg width="80" height="80" viewBox="0 0 80 80" fill="none" xmlns="http://www.w3.org/2000/svg">
<circle cx="40" cy="40" r="40" fill="white"/>
<g clip-path="url(#clip0)">
<path d="M51.7105 38.8999L50.2187 32.9862C49.3321 29.4712 47.7791 26.159 45.6442 23.2292L43.6341 20.4705C43.1561 19.8145 42.1662 19.8499 41.7363 20.5385C40.8617 21.9392 40.9108 23.7275 41.8608 25.0781L42.9576 26.6377C42.9567 26.6369 42.9558 26.6361 42.9549 26.6354C42.7955 26.5039 42.6322 26.3725 42.4688 26.245L39.7758 24.1494C39.1343 23.6475 38.1942 23.9542 37.971 24.7351C37.8634 25.1095 37.8117 25.492 37.8117 25.8705C37.8117 27.0936 38.3575 28.2728 39.3415 29.0656L41.8035 31.0536C42.2652 31.4257 42.702 31.8261 43.1119 32.2515L40.7308 31.3219C39.0054 30.6483 37.1066 30.5595 35.3258 31.069L30.2288 32.8321C29.5726 33.0199 29.2683 33.7751 29.611 34.3654C30.6076 36.0817 32.6788 36.8538 34.5557 36.2087L36.9151 35.1439C37.9652 34.7829 39.1242 34.941 40.0392 35.5701L42.6071 37.3356C43.3968 37.8785 43.8106 38.8221 43.6751 39.7707C43.5635 40.5518 43.0928 41.2356 42.4031 41.6188L38.73 43.6595C37.3037 44.4519 35.5264 44.2152 34.3572 43.077C33.6622 42.4004 33.261 41.4777 33.2402 40.508L33.2696 40.2859C33.6191 37.6385 31.5123 35.3089 28.8433 35.3914C28.1075 35.4141 27.5378 36.0434 27.5879 36.7778L27.9499 42.0792C28.0205 43.1131 28.4025 44.1014 29.0456 44.9142L33.3027 50.2946C34.0614 51.2534 35.0942 51.9585 36.2635 52.3158C39.3538 53.2601 42.643 53.3443 45.7775 52.5596L46.2572 52.4395C47.9616 52.0127 49.3945 50.8625 50.1795 49.2906L51.3877 46.8717C52.6885 44.2675 52.7073 41.3812 51.7105 38.8999Z" fill="url(#paint0_radial)"/>
<path d="M39.3413 29.0661L41.8034 31.0541C42.2651 31.4263 42.7019 31.8266 43.1118 32.252L46.0685 33.4063L45.9262 32.7617C45.5222 30.9315 44.759 29.1997 43.6807 27.6666L42.9575 26.6383C42.9565 26.6375 42.9557 26.6367 42.9547 26.636C42.7954 26.5045 42.6321 26.3731 42.4687 26.2456L39.7756 24.1501C39.1342 23.6481 38.194 23.9548 37.9709 24.7357C37.8633 25.1101 37.8115 25.4926 37.8115 25.8712C37.8114 27.0941 38.3572 28.2734 39.3413 29.0661Z" fill="url(#paint1_linear)"/>
<path d="M43.6807 27.6661C44.759 29.1992 45.5222 30.9311 45.9262 32.7613L46.0685 33.4058L46.2236 33.4664C48.8407 34.488 50.7484 36.5054 51.7104 38.8999L50.2186 32.9862C49.332 29.4712 47.779 26.159 45.6441 23.2292L43.634 20.4705C43.156 19.8145 42.1661 19.8499 41.7362 20.5385C40.8616 21.9392 40.9107 23.7275 41.8607 25.0781L43.6807 27.6661Z" fill="url(#paint2_linear)"/>
<path d="M52.07 57.6706V53.6696C52.07 52.3832 51.0272 51.3403 49.7408 51.3403H32.7555C31.4691 51.3403 30.4263 52.3832 30.4263 53.6696V57.6706C30.4263 58.9571 31.4691 59.9999 32.7555 59.9999H49.7409C51.0272 59.9999 52.07 58.9571 52.07 57.6706Z" fill="url(#paint3_linear)"/>
<path d="M49.741 51.3406H34.3167L34.4701 51.4185L43.0516 60H49.741C51.0274 60 52.0702 58.9572 52.0702 57.6708V53.6698C52.0701 52.3834 51.0273 51.3406 49.741 51.3406Z" fill="url(#paint4_linear)"/>
</g>
<defs>
<radialGradient id="paint0_radial" cx="0" cy="0" r="1" gradientUnits="userSpaceOnUse" gradientTransform="translate(40.0285 33.9007) scale(16.3468)">
<stop stop-color="#FCCECE"/>
<stop offset="0.5379" stop-color="#FCCCCD"/>
<stop offset="0.7317" stop-color="#FCC5CB"/>
<stop offset="0.8694" stop-color="#FBBAC8"/>
<stop offset="0.9803" stop-color="#FBA9C3"/>
<stop offset="1" stop-color="#FBA5C2"/>
</radialGradient>
<linearGradient id="paint1_linear" x1="43.1543" y1="27.3188" x2="40.8531" y2="30.7706" gradientUnits="userSpaceOnUse">
<stop stop-color="#FCCECE"/>
<stop offset="1" stop-color="#FBA5C2"/>
</linearGradient>
<linearGradient id="paint2_linear" x1="47.7934" y1="29.0895" x2="42.6169" y2="31.6778" gradientUnits="userSpaceOnUse">
<stop stop-color="#FCCECE"/>
<stop offset="1" stop-color="#FBA5C2"/>
</linearGradient>
<linearGradient id="paint3_linear" x1="33.0494" y1="51.1037" x2="49.9471" y2="60.5151" gradientUnits="userSpaceOnUse">
<stop stop-color="#3FA9F5"/>
<stop offset="1" stop-color="#666AD6"/>
</linearGradient>
<linearGradient id="paint4_linear" x1="52.764" y1="59.165" x2="25.313" y2="43.3219" gradientUnits="userSpaceOnUse">
<stop stop-color="#3B8EAC" stop-opacity="0"/>
<stop offset="1" stop-color="#343168"/>
</linearGradient>
<clipPath id="clip0">
<rect width="40" height="40" fill="white" transform="translate(20 20)"/>
</clipPath>
</defs>
</svg>
