<svg width="80" height="80" viewBox="0 0 80 80" fill="none" xmlns="http://www.w3.org/2000/svg">
<circle cx="40" cy="40" r="40" fill="white"/>
<g clip-path="url(#clip0)">
<path d="M59.8959 35.3437C59.634 34.5337 58.9156 33.9585 58.0657 33.8819L46.5206 32.8336L41.9553 22.1482C41.6187 21.3651 40.8521 20.8582 40.0003 20.8582C39.1486 20.8582 38.3819 21.3651 38.0453 22.15L33.4801 32.8336L21.9331 33.8819C21.0847 33.9603 20.3682 34.5337 20.1048 35.3437C19.8414 36.1537 20.0847 37.042 20.7265 37.6021L29.4532 45.2554L26.8799 56.5909C26.6916 57.4243 27.0151 58.2859 27.7066 58.7858C28.0783 59.0543 28.5132 59.191 28.9518 59.191C29.3299 59.191 29.705 59.0891 30.0416 58.8877L40.0003 52.9357L49.9554 58.8877C50.6839 59.3259 51.6022 59.286 52.2922 58.7858C52.9841 58.2843 53.3072 57.4225 53.1189 56.5909L50.5456 45.2554L59.2724 37.6036C59.9142 37.042 60.1592 36.1552 59.8959 35.3437Z" fill="#FFC107"/>
</g>
<defs>
<clipPath id="clip0">
<rect width="40" height="40" fill="white" transform="translate(20 20)"/>
</clipPath>
</defs>
</svg>
