<svg width="31" height="31" viewBox="0 0 31 31" fill="none" xmlns="http://www.w3.org/2000/svg">
<g clip-path="url(#clip0)">
<path d="M1.15603 14.6254L8.04525 17.213L10.7118 25.843C10.8824 26.3958 11.554 26.6001 11.9998 26.2333L15.84 23.0828C16.2425 22.7528 16.8159 22.7363 17.2366 23.0436L24.1628 28.1042C24.6397 28.453 25.3153 28.19 25.4349 27.6101L30.5088 3.04881C30.6394 2.41534 30.0209 1.88689 29.4215 2.12018L1.14795 13.0966C0.450221 13.3674 0.456301 14.3615 1.15603 14.6254ZM10.2821 15.8355L23.7462 7.49027C23.9881 7.34073 24.2371 7.67 24.0293 7.86397L12.9175 18.2585C12.5269 18.6244 12.275 19.1141 12.2036 19.6455L11.8251 22.4684C11.775 22.8453 11.2489 22.8827 11.1455 22.518L9.68977 17.3703C9.52303 16.7832 9.76601 16.1561 10.2821 15.8355Z" fill="white"/>
</g>
<defs>
<clipPath id="clip0">
<rect width="29.8985" height="30.0885" fill="white" transform="translate(0.62793 0.118164)"/>
</clipPath>
</defs>
</svg>
