<svg width="30" height="31" viewBox="0 0 30 31" fill="none" xmlns="http://www.w3.org/2000/svg">
<g clip-path="url(#clip0)">
<path d="M15.1035 7.24072C10.8594 7.24072 7.42139 10.6767 7.42139 14.9239C7.42139 16.5942 7.96672 18.169 8.89142 19.4336L7.9193 22.2969L10.8831 21.3425C12.0923 22.1537 13.5623 22.6071 15.1272 22.6071C19.3713 22.6071 22.833 19.1711 22.833 14.9239C22.8093 10.6767 19.3476 7.24072 15.1035 7.24072ZM19.6084 18.0974C19.4187 18.6223 18.494 19.1234 18.091 19.1711C17.6879 19.2189 17.6879 19.5052 15.388 18.6223C13.1118 17.7156 11.6655 15.4011 11.547 15.2341C11.4284 15.0909 10.6223 14.0172 10.6223 12.9196C10.6223 11.822 11.1913 11.2732 11.4047 11.0585C11.6181 10.8437 11.8552 10.7721 11.9975 10.7721C12.1397 10.7721 12.3057 10.796 12.4242 10.796C12.5665 10.796 12.7325 10.7244 12.9221 11.1778C13.1118 11.6311 13.5623 12.7287 13.6097 12.848C13.6572 12.9673 13.7046 13.0866 13.6335 13.2298C13.5623 13.373 13.5149 13.4684 13.4201 13.6116C13.3015 13.7309 13.183 13.8979 13.0881 13.9933C12.9696 14.1126 12.851 14.2319 12.9933 14.4467C13.1355 14.6614 13.586 15.4011 14.2499 15.9976C15.1035 16.7612 15.8385 16.9998 16.0519 17.1191C16.2653 17.2384 16.4075 17.2145 16.5261 17.0714C16.6684 16.9282 17.0951 16.4271 17.2374 16.1885C17.3797 15.9738 17.5456 15.9976 17.7353 16.0692C17.9487 16.1408 19.0394 16.6896 19.2765 16.8089C19.4899 16.9282 19.6558 16.9759 19.7033 17.0714C19.7744 17.1191 19.7744 17.5725 19.6084 18.0974Z" fill="white"/>
<path d="M22.3824 0.129883H7.49242C3.36685 0.129883 0 3.51812 0 7.6699V22.6784C0 26.8063 3.36685 30.1945 7.49242 30.1945H22.4061C26.5317 30.1945 29.8985 26.8063 29.8985 22.6545V7.6699C29.8748 3.51812 26.508 0.129883 22.3824 0.129883ZM15.1034 24.0623C13.4911 24.0623 11.9973 23.6567 10.6696 22.917L5.5956 24.5395L7.25531 19.648C6.42546 18.2641 5.95125 16.6416 5.95125 14.9236C5.95125 9.8651 10.0531 5.7849 15.1034 5.7849C20.1537 5.7849 24.2555 9.8651 24.2555 14.9236C24.2555 19.9821 20.1537 24.0623 15.1034 24.0623Z" fill="white"/>
</g>
<defs>
<clipPath id="clip0">
<rect width="29.8985" height="30.0885" fill="white" transform="translate(0 0.118164)"/>
</clipPath>
</defs>
</svg>
