<svg width="31" height="22" viewBox="0 0 31 22" fill="none" xmlns="http://www.w3.org/2000/svg">
<path d="M29.1396 2.8127C28.3286 1.36093 27.4484 1.09389 25.6564 0.992345C23.8662 0.87011 19.3646 0.819336 15.4647 0.819336C11.5574 0.819336 7.05389 0.87011 5.26559 0.990464C3.47728 1.09389 2.59527 1.35905 1.7768 2.8127C0.94151 4.26259 0.511719 6.75993 0.511719 11.1566C0.511719 11.1604 0.511719 11.1623 0.511719 11.1623C0.511719 11.166 0.511719 11.1679 0.511719 11.1679V11.1717C0.511719 15.5495 0.94151 18.0657 1.7768 19.5005C2.59527 20.9523 3.47541 21.2156 5.26372 21.3378C7.05389 21.4431 11.5574 21.5052 15.4647 21.5052C19.3646 21.5052 23.8662 21.4431 25.6583 21.3397C27.4503 21.2175 28.3304 20.9542 29.1414 19.5024C29.9842 18.0676 30.4103 15.5514 30.4103 11.1735C30.4103 11.1735 30.4103 11.1679 30.4103 11.1641C30.4103 11.1641 30.4103 11.1604 30.4103 11.1585C30.4103 6.75993 29.9842 4.26259 29.1396 2.8127ZM11.7237 16.8038V5.52066L21.067 11.1623L11.7237 16.8038Z" fill="white"/>
</svg>
